<svg viewBox="0 0 327 159" fill="none" xmlns="http://www.w3.org/2000/svg">
<path d="M101.97 0.159895V157.97H115.84V41.2199C119.76 79.8799 123.71 118.92 127.66 157.91H140.77C144.817 119.79 148.857 81.7899 152.89 43.9099H153V157.96H168.32V0.0398846C161.42 0.0398846 154.73 0.0398919 148.03 0.109892C147.52 0.109892 146.65 1.05989 146.57 1.65989C146.11 4.96989 145.86 8.3199 145.57 11.6599C144.043 26.3266 142.52 40.9932 141 55.6599C139.9 66.4532 138.837 77.2466 137.81 88.0399C137.1 95.4899 136.5 102.96 135.81 110.53C132.01 73.6699 128.217 36.8766 124.43 0.149885L101.97 0.159895ZM268.4 81.3899C268.425 81.2932 268.473 81.204 268.54 81.1299C268.758 80.8995 269 80.6918 269.26 80.5099C271.594 78.8704 273.499 76.6935 274.815 74.1628C276.131 71.6322 276.819 68.8221 276.82 65.9699C277.03 52.4099 277.05 38.8399 276.95 25.2699C276.878 21.6895 276.449 18.1252 275.67 14.6299C274.05 7.0099 267.82 1.03989 260.07 0.559889C251.01 -0.0101112 241.89 0.259889 232.8 0.169889C232.67 0.169889 232.54 0.329889 232.39 0.419889V157.98H248.87V89.0799H253.67C258.67 89.0799 261.07 91.3599 261.37 96.4299C261.42 97.3099 261.37 98.1899 261.37 99.0699C261.37 112.8 261.19 126.53 261.49 140.25C261.58 144.72 262.72 149.25 263.79 153.59C264.32 155.8 265.74 158.17 268.28 158.4C272.13 158.75 276.04 158.49 279.94 158.49C279.94 156.8 280.35 155.22 279.87 154C277.46 147.89 277.4 141.54 277.38 135.15C277.38 122.38 277.32 109.61 277.21 96.8399C277.222 93.3718 276.059 90.0019 273.91 87.2799C272.28 85.1899 270.29 83.3899 268.4 81.3899ZM224.93 157.99C219.72 105.27 214.54 52.7599 209.34 0.159895H191.56C186.293 52.8266 181.027 105.43 175.76 157.97H190.41C191.29 147.91 192.17 138.02 193.04 128.09H206.27C206.83 138.14 207.38 148 207.93 157.99H224.93ZM49.08 157.99C49.03 157.23 49 156.61 48.94 155.99C47.74 143.69 46.51 131.39 45.32 119.08C44.02 105.58 42.77 92.0799 41.45 78.5799C40.04 64.2199 38.57 49.8599 37.13 35.4899C36.0233 24.3032 34.9233 13.1132 33.83 1.91989C33.7 0.529889 33.2 -0.0101099 31.76 0.0298901C28.33 0.10989 24.9 0.0298901 21.47 0.0298901H15.8C10.56 52.9099 5.26 105.39 0 157.95H14.63C15.52 147.89 16.4 137.95 17.29 127.95H30.48C31.04 137.95 31.6 147.89 32.16 157.95L49.08 157.99ZM288.77 0.189894V157.99H326.48V141.84H305.15V84.7799H320.2V68.3899H305.12V16.2899H326.4V0.159895L288.77 0.189894ZM72.87 141.79V0.149885H56.87V157.96H93.56V141.79H72.87Z" fill="#fff"/>
<path d="M101.97 0.160064H124.42C128.213 36.9401 132.007 73.7334 135.8 110.54C136.45 102.97 137.05 95.5401 137.8 88.0501C138.82 77.2501 139.883 66.4567 140.99 55.6701C142.483 41.0034 144.007 26.3367 145.56 11.6701C145.9 8.34006 146.15 4.99006 146.56 1.67006C146.64 1.07006 147.56 0.130055 148.02 0.120055C154.72 0.0100553 161.41 0.0500632 168.31 0.0500632V157.96H153V43.8901H152.89C148.85 81.8301 144.81 119.83 140.77 157.89H127.66C123.71 118.89 119.76 79.8901 115.84 41.2001V157.97H101.97V0.160064Z" fill="#1d1d1d"/>
<path d="M268.4 81.3899C270.29 83.3899 272.28 85.2199 273.94 87.3099C276.089 90.0319 277.252 93.4018 277.24 96.8699C277.35 109.64 277.38 122.41 277.41 135.18C277.41 141.57 277.49 147.92 279.9 154.03C280.38 155.25 279.97 156.83 279.97 158.52C276.07 158.52 272.16 158.78 268.31 158.43C265.77 158.2 264.31 155.83 263.82 153.62C262.75 149.24 261.61 144.75 261.52 140.28C261.22 126.56 261.4 112.83 261.4 99.0999C261.4 98.2199 261.4 97.3399 261.4 96.4599C261.1 91.3899 258.73 89.1299 253.7 89.1099H248.9V158.01H232.39V0.389893C232.54 0.299893 232.67 0.139893 232.8 0.139893C241.89 0.229893 251.01 -0.040108 260.07 0.529892C267.82 1.00989 274.07 6.9799 275.67 14.5999C276.449 18.0952 276.878 21.6595 276.95 25.2399C277.05 38.8099 277.03 52.3799 276.82 65.9399C276.818 68.7921 276.131 71.6022 274.815 74.1328C273.499 76.6635 271.594 78.8404 269.26 80.4799C269 80.6618 268.758 80.8695 268.54 81.0999C268.469 81.1825 268.42 81.2826 268.4 81.3899V81.3899ZM248.98 16.9299V72.9299C251.06 72.9299 253.03 72.9299 254.98 72.9299C257.71 72.8499 259.31 71.6899 259.98 69.0599C260.327 67.6737 260.495 66.2488 260.48 64.8199C260.48 51.3466 260.48 37.8799 260.48 24.4199C260.465 23.0759 260.321 21.7364 260.05 20.4199C259.921 19.4533 259.443 18.5672 258.706 17.9282C257.97 17.2892 257.025 16.9413 256.05 16.9499C253.81 16.7999 251.56 16.8999 248.98 16.8999V16.9299Z" fill="#1d1d1d"/>
<path d="M224.93 157.96H207.93C207.38 147.96 206.83 138.11 206.27 128.06H193C192.13 137.99 191.25 147.88 190.37 157.94H175.72C180.987 105.32 186.253 52.7168 191.52 0.130127H209.34C214.56 52.7301 219.72 105.24 224.93 157.96ZM200.71 42.0201H200.31C198.35 64.6868 196.387 87.3701 194.42 110.07H205.03C203.56 87.2501 202.15 64.6301 200.71 42.0201Z" fill="#1d1d1d"/>
<path d="M49.08 157.96H32.16C31.6 147.96 31.04 138.01 30.48 127.96H17.29C16.4 137.96 15.52 147.86 14.63 157.96H0C5.26 105.4 10.51 52.96 15.8 0.0300293H21.47C24.9 0.0300293 28.33 0.0900293 31.76 0.0300293C33.2 0.0300293 33.7 0.530029 33.83 1.92003C34.8967 13.12 35.9967 24.31 37.13 35.49C38.57 49.86 40.04 64.22 41.45 78.58C42.77 92.08 44.02 105.58 45.32 119.08C46.51 131.39 47.74 143.69 48.94 155.99C49 156.58 49.03 157.2 49.08 157.96ZM25.08 43.29H24.48C22.56 65.49 20.64 87.7 18.7 110.06H29.29C27.88 87.64 26.48 65.46 25.08 43.29V43.29Z" fill="#1d1d1d"/>
<path d="M288.77 0.159912H326.4V16.2899H305.12V68.3899H320.2V84.7699H305.15V141.83H326.48V157.95H288.77V0.159912Z" fill="#1d1d1d"/>
<path d="M72.8701 141.79H93.5601V157.96H56.8501V0.149902H72.8501L72.8701 141.79Z" fill="#1d1d1d"/>
<path d="M248.98 16.8999C251.51 16.8999 253.81 16.7999 256.1 16.8999C257.075 16.8913 258.02 17.2392 258.756 17.8783C259.493 18.5173 259.971 19.4033 260.1 20.3699C260.371 21.6864 260.515 23.0259 260.53 24.3699C260.57 37.8299 260.57 51.2966 260.53 64.7699C260.545 66.1988 260.377 67.6237 260.03 69.0099C259.33 71.6399 257.73 72.7999 255.03 72.8799C253.03 72.9399 251.09 72.8799 249.03 72.8799L248.98 16.8999Z" fill="#fff"/>
<path d="M200.71 42.02C202.15 64.63 203.58 87.25 205.03 110.09H194.42C196.42 87.35 198.383 64.6667 200.31 42.04L200.71 42.02Z" fill="#fff"/>
<path d="M25.0799 43.29C26.4799 65.46 27.88 87.6401 29.29 110.06H18.7C20.64 87.7001 22.5599 65.49 24.4799 43.29H25.0799Z" fill="#fff"/>
</svg>
